<svg xmlns="http://www.w3.org/2000/svg" preserveAspectRatio="xMinYMin meet" width="16" height="16" viewBox="0 0 16 16"><path d="M16 1v14H0V1h16z"/><path d="M1 0h14v16H1V0z"/><path d="M1 1h14v14H1V1z" fill="#FFF"/><path d="M3 3h1v1H3V3z" fill="#FFE2B1"/><path d="M4 3h1v1H4V3z" fill="#FF9E39"/><path d="M5 3h1v1H5V3z" fill="#FFE2B1"/><path d="M6 3h1v1H6V3z" fill="#FF9E39"/><path d="M7 3h1v1H7V3z" fill="#FFE2B1"/><path d="M8 3h1v1H8V3z" fill="#FF9E39"/><path d="M9 3h1v1H9V3z" fill="#FFE2B1"/><path d="M10 3h1v1h-1V3z" fill="#FF9E39"/><path d="M11 3h1v1h-1V3z" fill="#FFE2B1"/><path d="M12 3h1v1h-1V3zM3 4h1v2H3V4z" fill="#FF9E39"/><path d="M4 4h1v1H4V4z" fill="#FFE2B1"/><path d="M5 4h1v2H5V4z" fill="#FF9E39"/><path d="M6 4h1v1H6V4z" fill="#FFE2B1"/><path d="M7 4h1v2H7V4z" fill="#FF9E39"/><path d="M8 4h1v1H8V4z" fill="#FFE2B1"/><path d="M9 4h1v2H9V4z" fill="#FF9E39"/><path d="M10 4h1v1h-1V4z" fill="#FFE2B1"/><path d="M11 4h1v1h1v1h-2V4z" fill="#FF9E39"/><path d="M12 4h1v1h-1V4z" fill="#FFE2B1"/><path d="M4 5h1v1H4V5zm2 0h1v1H6V5zm2 0h1v1H8V5zm2 0h1v1h-1V5zM3 6h1v1H3V6z" fill="#F15200"/><path d="M4 6h1v1H4V6z" fill="#950000"/><path d="M5 6h1v1H5V6z" fill="#F15200"/><path d="M6 6h1v1H6V6z" fill="#950000"/><path d="M7 6h1v1H7V6z" fill="#F15200"/><path d="M8 6h1v1h1v1H9v1H7V7h1V6z" fill="#606060"/><path d="M9 6h1v1H9V6z" fill="#F15200"/><path d="M10 6h1v1h-1V6z" fill="#950000"/><path d="M11 6h1v1h-1V6z" fill="#F15200"/><path d="M12 6h1v1h-1V6zM3 7h1v1H3V7z" fill="#950000"/><path d="M4 7h1v1H4V7z" fill="#F15200"/><path d="M5 7h2v1H5V7z" fill="#FB0"/><path d="M10 7h1v1h1v2H9V8h1V7z" fill="green"/><path d="M11 7h1v1h-1V7z" fill="#950000"/><path d="M12 7h1v1h-1V7zM3 8h1v1H3V8z" fill="#F15200"/><path d="M4 8h1v1H4V8z" fill="#FB0"/><path d="M5 8h2v1h2v1h1v2H3v-2h1V9h1V8z" fill="#484848"/><path d="M12 8h1v1h-1V8zM3 9h1v1H3V9z" fill="#950000"/><path d="M12 9h1v1h-1V9z" fill="#F15200"/><path d="M10 10h1v2h-1v-2z" fill="#B18200"/><path d="M11 10h2v2h-1v-1h-1v-1z" fill="#606060"/><path d="M11 11h1v1h-1v-1z" fill="#484848"/></svg>